{
    "asset" : {
        "generator" : "Khronos glTF Blender I/O v1.6.16",
        "version" : "2.0"
    },
    "scene" : 0,
    "scenes" : [
        {
            "name" : "Scene",
            "nodes" : [
                0,
                1,
                2
            ]
        }
    ],
    "nodes" : [
        {
            "mesh" : 0,
            "name" : "emitter"
        },
        {
            "mesh" : 1,
            "name" : "popcorn1"
        },
        {
            "mesh" : 2,
            "name" : "popcorn2"
        }
    ],
    "materials" : [
        {
            "doubleSided" : true,
            "name" : "M_Popcorn2",
            "normalTexture" : {
                "index" : 0
            },
            "pbrMetallicRoughness" : {
                "baseColorTexture" : {
                    "index" : 1
                },
                "metallicRoughnessTexture" : {
                    "index" : 2
                }
            }
        },
        {
            "doubleSided" : true,
            "name" : "M_Popcorn1",
            "normalTexture" : {
                "index" : 3
            },
            "pbrMetallicRoughness" : {
                "baseColorTexture" : {
                    "index" : 4
                },
                "metallicRoughnessTexture" : {
                    "index" : 5
                }
            }
        }
    ],
    "meshes" : [
        {
            "name" : "Sphere",
            "primitives" : [
                {
                    "attributes" : {
                        "POSITION" : 0,
                        "NORMAL" : 1,
                        "TEXCOORD_0" : 2
                    },
                    "indices" : 3
                }
            ]
        },
        {
            "name" : "Mesh.002",
            "primitives" : [
                {
                    "attributes" : {
                        "POSITION" : 4,
                        "NORMAL" : 5,
                        "TEXCOORD_0" : 6
                    },
                    "indices" : 7,
                    "material" : 0
                }
            ]
        },
        {
            "name" : "Mesh.001",
            "primitives" : [
                {
                    "attributes" : {
                        "POSITION" : 8,
                        "NORMAL" : 9,
                        "TEXCOORD_0" : 10
                    },
                    "indices" : 11,
                    "material" : 1
                }
            ]
        }
    ],
    "textures" : [
        {
            "sampler" : 0,
            "source" : 0
        },
        {
            "sampler" : 0,
            "source" : 1
        },
        {
            "sampler" : 0,
            "source" : 2
        },
        {
            "sampler" : 0,
            "source" : 3
        },
        {
            "sampler" : 0,
            "source" : 4
        },
        {
            "sampler" : 0,
            "source" : 5
        }
    ],
    "images" : [
        {
            "bufferView" : 8,
            "mimeType" : "image/png",
            "name" : "Popcorn2_DefaultMaterial_Normal"
        },
        {
            "bufferView" : 9,
            "mimeType" : "image/png",
            "name" : "Popcorn2_DefaultMaterial_BaseColor"
        },
        {
            "bufferView" : 10,
            "mimeType" : "image/png",
            "name" : "Popcorn2_DefaultMaterial_Metallic-Popcorn2_DefaultMaterial_Roughness"
        },
        {
            "bufferView" : 15,
            "mimeType" : "image/png",
            "name" : "Popcorn_DefaultMaterial_Normal"
        },
        {
            "bufferView" : 16,
            "mimeType" : "image/png",
            "name" : "Popcorn_DefaultMaterial_BaseColor"
        },
        {
            "bufferView" : 17,
            "mimeType" : "image/png",
            "name" : "Popcorn_DefaultMaterial_Metallic-Popcorn_DefaultMaterial_Roughness"
        }
    ],
    "accessors" : [
        {
            "bufferView" : 0,
            "componentType" : 5126,
            "count" : 752,
            "max" : [
                0.06949317455291748,
                0.06949319690465927,
                1.1507558461687495e-08
            ],
            "min" : [
                -0.0694931298494339,
                -0.0491391085088253,
                -0.06949310749769211
            ],
            "type" : "VEC3"
        },
        {
            "bufferView" : 1,
            "componentType" : 5126,
            "count" : 752,
            "type" : "VEC3"
        },
        {
            "bufferView" : 2,
            "componentType" : 5126,
            "count" : 752,
            "type" : "VEC2"
        },
        {
            "bufferView" : 3,
            "componentType" : 5123,
            "count" : 1104,
            "type" : "SCALAR"
        },
        {
            "bufferView" : 4,
            "componentType" : 5126,
            "count" : 640,
            "max" : [
                0.09480844438076019,
                0.08737386763095856,
                0.12046836316585541
            ],
            "min" : [
                -0.10822552442550659,
                -0.1175619512796402,
                -0.11085062474012375
            ],
            "type" : "VEC3"
        },
        {
            "bufferView" : 5,
            "componentType" : 5126,
            "count" : 640,
            "type" : "VEC3"
        },
        {
            "bufferView" : 6,
            "componentType" : 5126,
            "count" : 640,
            "type" : "VEC2"
        },
        {
            "bufferView" : 7,
            "componentType" : 5123,
            "count" : 2148,
            "type" : "SCALAR"
        },
        {
            "bufferView" : 11,
            "componentType" : 5126,
            "count" : 606,
            "max" : [
                0.09656564146280289,
                0.11605052649974823,
                0.0569155178964138
            ],
            "min" : [
                -0.08801673352718353,
                -0.056645188480615616,
                -0.1612951159477234
            ],
            "type" : "VEC3"
        },
        {
            "bufferView" : 12,
            "componentType" : 5126,
            "count" : 606,
            "type" : "VEC3"
        },
        {
            "bufferView" : 13,
            "componentType" : 5126,
            "count" : 606,
            "type" : "VEC2"
        },
        {
            "bufferView" : 14,
            "componentType" : 5123,
            "count" : 2148,
            "type" : "SCALAR"
        }
    ],
    "bufferViews" : [
        {
            "buffer" : 0,
            "byteLength" : 9024,
            "byteOffset" : 0
        },
        {
            "buffer" : 0,
            "byteLength" : 9024,
            "byteOffset" : 9024
        },
        {
            "buffer" : 0,
            "byteLength" : 6016,
            "byteOffset" : 18048
        },
        {
            "buffer" : 0,
            "byteLength" : 2208,
            "byteOffset" : 24064
        },
        {
            "buffer" : 0,
            "byteLength" : 7680,
            "byteOffset" : 26272
        },
        {
            "buffer" : 0,
            "byteLength" : 7680,
            "byteOffset" : 33952
        },
        {
            "buffer" : 0,
            "byteLength" : 5120,
            "byteOffset" : 41632
        },
        {
            "buffer" : 0,
            "byteLength" : 4296,
            "byteOffset" : 46752
        },
        {
            "buffer" : 0,
            "byteLength" : 300310,
            "byteOffset" : 51048
        },
        {
            "buffer" : 0,
            "byteLength" : 517299,
            "byteOffset" : 351360
        },
        {
            "buffer" : 0,
            "byteLength" : 622597,
            "byteOffset" : 868660
        },
        {
            "buffer" : 0,
            "byteLength" : 7272,
            "byteOffset" : 1491260
        },
        {
            "buffer" : 0,
            "byteLength" : 7272,
            "byteOffset" : 1498532
        },
        {
            "buffer" : 0,
            "byteLength" : 4848,
            "byteOffset" : 1505804
        },
        {
            "buffer" : 0,
            "byteLength" : 4296,
            "byteOffset" : 1510652
        },
        {
            "buffer" : 0,
            "byteLength" : 330231,
            "byteOffset" : 1514948
        },
        {
            "buffer" : 0,
            "byteLength" : 405916,
            "byteOffset" : 1845180
        },
        {
            "buffer" : 0,
            "byteLength" : 805680,
            "byteOffset" : 2251096
        }
    ],
    "samplers" : [
        {
            "magFilter" : 9729,
            "minFilter" : 9987
        }
    ],
    "buffers" : [
        {
            "byteLength" : 3056776,
            "uri" : "data:application/octet-stream;base64,"
        }
    ]
}
