{
    "asset" : {
        "generator" : "Khronos glTF Blender I/O v1.6.16",
        "version" : "2.0"
    },
    "scene" : 0,
    "scenes" : [
        {
            "name" : "Scene",
            "nodes" : [
                0
            ]
        }
    ],
    "nodes" : [
        {
            "mesh" : 0,
            "name" : "popcorn2"
        }
    ],
    "materials" : [
        {
            "doubleSided" : true,
            "name" : "M_Popcorn1",
            "normalTexture" : {
                "index" : 0
            },
            "pbrMetallicRoughness" : {
                "baseColorTexture" : {
                    "index" : 1
                },
                "metallicRoughnessTexture" : {
                    "index" : 2
                }
            }
        }
    ],
    "meshes" : [
        {
            "name" : "Mesh.001",
            "primitives" : [
                {
                    "attributes" : {
                        "POSITION" : 0,
                        "NORMAL" : 1,
                        "TEXCOORD_0" : 2
                    },
                    "indices" : 3,
                    "material" : 0
                }
            ]
        }
    ],
    "textures" : [
        {
            "sampler" : 0,
            "source" : 0
        },
        {
            "sampler" : 0,
            "source" : 1
        },
        {
            "sampler" : 0,
            "source" : 2
        }
    ],
    "images" : [
        {
            "bufferView" : 4,
            "mimeType" : "image/png",
            "name" : "Popcorn_DefaultMaterial_Normal"
        },
        {
            "bufferView" : 5,
            "mimeType" : "image/png",
            "name" : "Popcorn_DefaultMaterial_BaseColor"
        },
        {
            "bufferView" : 6,
            "mimeType" : "image/png",
            "name" : "Popcorn_DefaultMaterial_Metallic-Popcorn_DefaultMaterial_Roughness"
        }
    ],
    "accessors" : [
        {
            "bufferView" : 0,
            "componentType" : 5126,
            "count" : 606,
            "max" : [
                0.09656564146280289,
                0.11605052649974823,
                0.0569155178964138
            ],
            "min" : [
                -0.08801673352718353,
                -0.056645188480615616,
                -0.1612951159477234
            ],
            "type" : "VEC3"
        },
        {
            "bufferView" : 1,
            "componentType" : 5126,
            "count" : 606,
            "type" : "VEC3"
        },
        {
            "bufferView" : 2,
            "componentType" : 5126,
            "count" : 606,
            "type" : "VEC2"
        },
        {
            "bufferView" : 3,
            "componentType" : 5123,
            "count" : 2148,
            "type" : "SCALAR"
        }
    ],
    "bufferViews" : [
        {
            "buffer" : 0,
            "byteLength" : 7272,
            "byteOffset" : 0
        },
        {
            "buffer" : 0,
            "byteLength" : 7272,
            "byteOffset" : 7272
        },
        {
            "buffer" : 0,
            "byteLength" : 4848,
            "byteOffset" : 14544
        },
        {
            "buffer" : 0,
            "byteLength" : 4296,
            "byteOffset" : 19392
        },
        {
            "buffer" : 0,
            "byteLength" : 330231,
            "byteOffset" : 23688
        },
        {
            "buffer" : 0,
            "byteLength" : 405916,
            "byteOffset" : 353920
        },
        {
            "buffer" : 0,
            "byteLength" : 805680,
            "byteOffset" : 759836
        }
    ],
    "samplers" : [
        {
            "magFilter" : 9729,
            "minFilter" : 9987
        }
    ],
    "buffers" : [
        {
            "byteLength" : 1565516,
            "uri" : "data:application/octet-stream;base64,"
        }
    ]
}
