{
    "asset" : {
        "generator" : "Khronos glTF Blender I/O v1.6.16",
        "version" : "2.0"
    },
    "scene" : 0,
    "scenes" : [
        {
            "name" : "Scene",
            "nodes" : [
                0,
                1
            ]
        }
    ],
    "nodes" : [
        {
            "mesh" : 0,
            "name" : "hole",
            "scale" : [
                10,
                10,
                10
            ],
            "translation" : [
                0,
                0.014107940718531609,
                0
            ]
        },
        {
            "mesh" : 1,
            "name" : "Sphere",
            "translation" : [
                0,
                -1.3871238231658936,
                0
            ]
        }
    ],
    "animations" : [
        {
            "channels" : [
                {
                    "sampler" : 0,
                    "target" : {
                        "node" : 1,
                        "path" : "translation"
                    }
                }
            ],
            "name" : "SphereAction.004",
            "samplers" : [
                {
                    "input" : 8,
                    "interpolation" : "LINEAR",
                    "output" : 9
                }
            ]
        }
    ],
    "materials" : [
        {
            "doubleSided" : true,
            "name" : "hole",
            "pbrMetallicRoughness" : {
                "baseColorFactor" : [
                    0,
                    0,
                    0,
                    1
                ],
                "metallicFactor" : 0
            }
        },
        {
            "doubleSided" : true,
            "name" : "ball",
            "pbrMetallicRoughness" : {
                "baseColorFactor" : [
                    0.8000000715255737,
                    0.01595609448850155,
                    0.26121988892555237,
                    1
                ],
                "metallicFactor" : 0,
                "roughnessFactor" : 0.9710743427276611
            }
        }
    ],
    "meshes" : [
        {
            "name" : "Cylinder",
            "primitives" : [
                {
                    "attributes" : {
                        "POSITION" : 0,
                        "NORMAL" : 1,
                        "TEXCOORD_0" : 2
                    },
                    "indices" : 3,
                    "material" : 0
                }
            ]
        },
        {
            "name" : "Sphere.001",
            "primitives" : [
                {
                    "attributes" : {
                        "POSITION" : 4,
                        "NORMAL" : 5,
                        "TEXCOORD_0" : 6
                    },
                    "indices" : 7,
                    "material" : 1
                }
            ]
        }
    ],
    "accessors" : [
        {
            "bufferView" : 0,
            "componentType" : 5126,
            "count" : 192,
            "max" : [
                0.11999999731779099,
                0.0005000000237487257,
                0.11999999731779099
            ],
            "min" : [
                -0.11999999731779099,
                -0.0005000000237487257,
                -0.11999999731779099
            ],
            "type" : "VEC3"
        },
        {
            "bufferView" : 1,
            "componentType" : 5126,
            "count" : 192,
            "type" : "VEC3"
        },
        {
            "bufferView" : 2,
            "componentType" : 5126,
            "count" : 192,
            "type" : "VEC2"
        },
        {
            "bufferView" : 3,
            "componentType" : 5123,
            "count" : 372,
            "type" : "SCALAR"
        },
        {
            "bufferView" : 4,
            "componentType" : 5126,
            "count" : 559,
            "max" : [
                0.9056826233863831,
                0.9056828022003174,
                0.9056824445724487
            ],
            "min" : [
                -0.9056823253631592,
                -0.9056828022003174,
                -0.9056828022003174
            ],
            "type" : "VEC3"
        },
        {
            "bufferView" : 5,
            "componentType" : 5126,
            "count" : 559,
            "type" : "VEC3"
        },
        {
            "bufferView" : 6,
            "componentType" : 5126,
            "count" : 559,
            "type" : "VEC2"
        },
        {
            "bufferView" : 7,
            "componentType" : 5123,
            "count" : 2880,
            "type" : "SCALAR"
        },
        {
            "bufferView" : 8,
            "componentType" : 5126,
            "count" : 91,
            "max" : [
                4.166666666666667
            ],
            "min" : [
                0.4166666666666667
            ],
            "type" : "SCALAR"
        },
        {
            "bufferView" : 9,
            "componentType" : 5126,
            "count" : 91,
            "type" : "VEC3"
        }
    ],
    "bufferViews" : [
        {
            "buffer" : 0,
            "byteLength" : 2304,
            "byteOffset" : 0
        },
        {
            "buffer" : 0,
            "byteLength" : 2304,
            "byteOffset" : 2304
        },
        {
            "buffer" : 0,
            "byteLength" : 1536,
            "byteOffset" : 4608
        },
        {
            "buffer" : 0,
            "byteLength" : 744,
            "byteOffset" : 6144
        },
        {
            "buffer" : 0,
            "byteLength" : 6708,
            "byteOffset" : 6888
        },
        {
            "buffer" : 0,
            "byteLength" : 6708,
            "byteOffset" : 13596
        },
        {
            "buffer" : 0,
            "byteLength" : 4472,
            "byteOffset" : 20304
        },
        {
            "buffer" : 0,
            "byteLength" : 5760,
            "byteOffset" : 24776
        },
        {
            "buffer" : 0,
            "byteLength" : 364,
            "byteOffset" : 30536
        },
        {
            "buffer" : 0,
            "byteLength" : 1092,
            "byteOffset" : 30900
        }
    ],
    "buffers" : [
        {
            "byteLength" : 31992,
            "uri" : "data:application/octet-stream;base64,"
        }
    ]
}
